<?xml version="1.0" standalone="no"?>
<!DOCTYPE svg PUBLIC "-//W3C//DTD SVG 20010904//EN"
 "http://www.w3.org/TR/2001/REC-SVG-20010904/DTD/svg10.dtd">
<svg version="1.0" xmlns="http://www.w3.org/2000/svg"
 width="2403.000000pt" height="1313.000000pt" viewBox="0 0 2403.000000 1313.000000"
 preserveAspectRatio="xMidYMid meet">
<metadata>
Created by potrace 1.16, written by Peter Selinger 2001-2019
</metadata>
<g transform="translate(0.000000,1313.000000) scale(0.100000,-0.100000)"
fill="#000000" stroke="none">
<path d="M22960 13100 c-323 -36 -310 -35 -600 -65 -348 -36 -316 -28 -318
-80 l-2 -43 67 -16 c38 -8 145 -32 238 -52 94 -20 175 -40 180 -44 7 -6 9
-908 7 -2682 l-2 -2673 -243 -76 -242 -77 -3 -41 -3 -41 916 0 916 0 -3 42 -3
43 -240 75 -240 76 -3 2789 -2 2789 -52 53 c-62 63 -27 60 -368 23z"/>
<path d="M2 12868 l3 -43 260 -76 260 -75 0 -2614 0 -2614 -260 -76 -260 -76
-3 -42 -3 -42 971 0 971 0 -3 42 -3 42 -260 76 -260 76 -3 1287 -2 1287 1470
0 1470 0 0 -1287 0 -1288 -258 -75 -257 -75 -3 -43 -3 -42 966 0 966 0 -3 42
-3 42 -260 75 -260 76 0 2615 0 2614 260 76 260 76 3 42 3 42 -965 0 -966 0 0
-42 0 -43 260 -75 260 -75 2 -1233 c2 -679 1 -1236 -1 -1238 -2 -2 -665 -4
-1473 -4 l-1468 0 2 1237 3 1237 260 76 260 76 3 42 3 42 -971 0 -971 0 3 -42z"/>
<path d="M8104 11309 c-695 -51 -1258 -378 -1582 -920 -131 -218 -222 -482
-269 -784 -25 -158 -25 -584 1 -745 124 -786 577 -1344 1278 -1574 253 -83
467 -116 758 -116 394 0 702 68 1015 225 180 90 303 176 443 310 422 402 633
1003 592 1684 -57 948 -586 1626 -1444 1852 -97 25 -204 44 -366 64 -84 10
-315 12 -426 4z m430 -148 c183 -48 305 -119 447 -260 114 -114 182 -212 260
-375 155 -326 228 -713 234 -1241 9 -766 -148 -1336 -461 -1674 -287 -310
-729 -404 -1115 -237 -432 186 -711 717 -780 1481 -15 167 -15 604 0 765 48
509 177 901 386 1173 162 209 389 349 630 387 95 14 308 4 399 -19z"/>
<path d="M19575 11314 c-427 -27 -839 -172 -1138 -401 -87 -67 -248 -224 -320
-313 -403 -500 -554 -1273 -387 -1985 168 -712 651 -1197 1365 -1371 226 -55
374 -71 660 -73 560 -4 1016 131 1394 412 102 76 251 207 251 221 0 7 -20 31
-44 55 l-45 44 -78 -72 c-304 -280 -694 -416 -1163 -406 -451 11 -784 133
-1045 386 -297 288 -457 712 -482 1282 l-6 147 1417 0 1418 0 62 55 c55 48 64
61 74 107 39 182 35 423 -10 628 -96 444 -365 808 -768 1035 -207 118 -477
203 -740 234 -100 12 -329 20 -415 15z m319 -139 c264 -46 465 -218 606 -518
78 -165 122 -323 159 -567 28 -185 30 -209 37 -417 l7 -183 -44 -1 c-24 0 -55
-2 -69 -4 -14 -1 -97 -6 -185 -9 -88 -4 -171 -9 -185 -11 -14 -2 -83 -7 -155
-10 -71 -3 -159 -7 -195 -10 -36 -2 -110 -7 -165 -10 -55 -3 -219 -12 -365
-20 -146 -8 -308 -17 -360 -20 -52 -3 -167 -10 -255 -15 -88 -6 -165 -10 -172
-10 -16 0 -17 63 -2 220 41 457 151 815 336 1094 75 113 234 280 324 338 218
143 447 194 683 153z"/>
<path d="M10382 11239 l3 -41 239 -77 239 -77 821 -1914 821 -1915 150 -3 150
-2 114 272 c63 150 187 446 276 658 89 212 299 712 466 1111 167 400 307 722
311 715 3 -6 255 -607 558 -1336 304 -729 561 -1346 572 -1372 l20 -48 153 0
153 0 35 88 c50 122 180 443 427 1047 324 795 356 874 450 1105 154 379 580
1422 616 1510 l35 85 252 75 252 76 3 42 3 42 -685 0 -686 0 0 -40 c0 -46 -31
-34 295 -110 342 -78 370 -86 368 -96 -1 -6 -152 -388 -336 -850 -184 -461
-450 -1131 -592 -1489 -142 -357 -261 -654 -265 -658 -4 -5 -54 108 -110 250
-56 142 -323 812 -593 1488 -269 677 -492 1239 -494 1251 -4 18 16 27 239 96
l243 75 3 41 3 42 -911 0 -911 0 3 -42 3 -41 215 -74 c118 -41 220 -79 226
-86 14 -15 354 -821 354 -839 0 -8 -90 -234 -201 -503 -110 -270 -284 -692
-386 -940 -101 -247 -210 -512 -241 -588 -31 -75 -59 -134 -63 -130 -4 5 -63
145 -132 313 -789 1930 -1099 2691 -1096 2694 2 2 101 37 219 78 l215 74 3 42
3 42 -906 0 -906 0 3 -41z"/>
<path d="M16709 5796 c-2 -2 -40 -6 -84 -10 -209 -17 -476 -75 -695 -151 -662
-230 -1177 -704 -1462 -1348 -132 -298 -215 -626 -253 -993 -17 -174 -20 -573
-5 -739 41 -440 136 -796 305 -1140 292 -594 776 -1018 1420 -1245 181 -63
477 -128 660 -145 39 -4 81 -9 95 -11 107 -19 594 -12 740 10 14 2 50 7 80 11
30 3 120 19 200 35 513 103 968 335 1332 681 l78 74 -44 50 -44 49 -79 -70
c-305 -275 -644 -445 -1063 -532 -287 -60 -695 -71 -990 -27 -735 111 -1259
532 -1545 1241 -117 291 -194 653 -224 1054 -12 152 -6 675 9 820 76 762 296
1316 675 1695 273 274 620 437 1045 490 161 21 493 16 655 -10 450 -70 795
-238 1055 -511 172 -182 313 -451 371 -708 l12 -56 74 0 74 0 -3 565 -3 565
-41 41 -41 40 -114 -68 c-63 -38 -140 -84 -171 -102 l-58 -32 -92 61 c-115 77
-358 196 -498 245 -351 122 -699 176 -1126 175 -133 -1 -244 -3 -245 -4z"/>
<path d="M21760 5409 c-757 -68 -1337 -453 -1637 -1085 -95 -201 -167 -475
-194 -741 -15 -150 -7 -485 16 -628 129 -832 639 -1410 1419 -1610 227 -58
330 -70 611 -70 323 0 485 23 745 107 698 225 1152 771 1286 1548 22 128 31
550 14 691 -112 975 -729 1628 -1672 1770 -151 23 -440 32 -588 18z m473 -148
c295 -78 522 -280 688 -612 115 -230 189 -520 229 -899 15 -136 20 -573 9
-715 -41 -514 -148 -886 -336 -1169 -215 -323 -526 -487 -892 -469 -257 12
-469 110 -653 301 -263 273 -420 694 -467 1257 -35 419 -15 826 60 1179 136
648 463 1052 924 1142 102 20 337 12 438 -15z"/>
<path d="M8416 5258 c-257 -667 -323 -835 -363 -916 -54 -115 -111 -176 -177
-193 -26 -6 -46 -15 -46 -20 0 -5 97 -9 215 -9 118 0 215 3 215 8 0 4 -24 16
-52 27 -115 44 -124 122 -42 335 26 69 51 130 55 135 5 6 84 9 212 7 l204 -3
61 -152 c73 -183 78 -204 58 -250 -18 -44 -46 -63 -114 -77 -28 -7 -52 -16
-52 -21 0 -5 131 -9 315 -9 193 0 315 4 315 10 0 5 -17 12 -37 15 -64 10 -125
46 -157 94 -16 24 -134 296 -262 605 -226 547 -233 561 -260 564 -29 3 -30 0
-88 -150z m103 -337 c50 -124 91 -228 91 -233 0 -4 -84 -8 -186 -8 -173 0
-186 1 -179 18 4 9 41 105 82 212 98 256 93 243 97 239 2 -2 45 -105 95 -228z"/>
<path d="M9530 5395 c0 -10 10 -15 28 -15 52 0 115 -41 140 -90 22 -46 22 -48
22 -520 0 -289 -3 -488 -9 -509 -18 -60 -70 -102 -143 -115 -21 -4 -38 -11
-38 -16 0 -6 87 -10 221 -10 144 0 218 3 214 10 -3 5 -24 13 -46 16 -51 9 -97
40 -123 84 -20 34 -21 52 -24 515 -1 263 0 476 3 473 4 -4 201 -251 439 -550
357 -448 437 -544 459 -546 l27 -3 0 558 c0 521 2 561 19 598 30 65 86 105
147 105 15 0 24 6 24 15 0 13 -31 15 -215 15 -184 0 -215 -2 -215 -15 0 -10
10 -15 28 -15 15 0 48 -10 72 -22 35 -18 51 -35 70 -73 l25 -50 3 -400 c3
-314 1 -397 -9 -388 -6 7 -179 225 -383 485 l-371 473 -183 3 c-157 2 -182 0
-182 -13z"/>
<path d="M11280 5396 c0 -9 8 -16 18 -16 74 0 143 -50 161 -118 8 -27 11 -198
11 -508 0 -466 0 -468 -22 -513 -27 -53 -70 -86 -127 -95 -23 -3 -41 -11 -41
-17 0 -7 136 -9 453 -6 392 3 460 6 512 21 218 64 343 218 381 466 23 158 -5
323 -79 465 -43 81 -174 211 -254 253 -132 69 -173 75 -615 80 -360 4 -398 2
-398 -12z m692 -37 c175 -37 324 -186 394 -394 35 -104 44 -290 20 -405 -30
-143 -117 -286 -212 -349 -68 -45 -134 -62 -237 -62 -167 1 -242 64 -247 211
-1 25 -1 262 -1 528 l1 482 115 0 c62 0 138 -5 167 -11z"/>
<path d="M21430 630 l0 -40 550 0 550 0 0 40 0 40 -550 0 -550 0 0 -40z"/>
</g>
</svg>
